<svg width="32" height="32" viewBox="0 0 32 32" fill="none" xmlns="http://www.w3.org/2000/svg">
<g id="credit card / 24 / Outline">
<path id="Vector" d="M9.33329 20H13.3333C13.6869 20 14.0261 19.8595 14.2761 19.6095C14.5262 19.3594 14.6666 19.0203 14.6666 18.6667C14.6666 18.3131 14.5262 17.9739 14.2761 17.7239C14.0261 17.4738 13.6869 17.3334 13.3333 17.3334H9.33329C8.97967 17.3334 8.64053 17.4738 8.39048 17.7239C8.14044 17.9739 7.99996 18.3131 7.99996 18.6667C7.99996 19.0203 8.14044 19.3594 8.39048 19.6095C8.64053 19.8595 8.97967 20 9.33329 20ZM25.3333 6.66669H6.66663C5.60576 6.66669 4.58834 7.08811 3.8382 7.83826C3.08805 8.58841 2.66663 9.60582 2.66663 10.6667V22.6667C2.66663 23.7276 3.08805 24.745 3.8382 25.4951C4.58834 26.2453 5.60576 26.6667 6.66663 26.6667H25.3333C26.3942 26.6667 27.4116 26.2453 28.1617 25.4951C28.9119 24.745 29.3333 23.7276 29.3333 22.6667V10.6667C29.3333 9.60582 28.9119 8.58841 28.1617 7.83826C27.4116 7.08811 26.3942 6.66669 25.3333 6.66669ZM26.6666 22.6667C26.6666 23.0203 26.5262 23.3594 26.2761 23.6095C26.0261 23.8595 25.6869 24 25.3333 24H6.66663C6.313 24 5.97387 23.8595 5.72382 23.6095C5.47377 23.3594 5.33329 23.0203 5.33329 22.6667V14.6667H26.6666V22.6667ZM26.6666 12H5.33329V10.6667C5.33329 10.3131 5.47377 9.97393 5.72382 9.72388C5.97387 9.47383 6.313 9.33335 6.66663 9.33335H25.3333C25.6869 9.33335 26.0261 9.47383 26.2761 9.72388C26.5262 9.97393 26.6666 10.3131 26.6666 10.6667V12Z" fill="#FBFBFB"/>
</g>
</svg>
