<svg width="25" height="24" viewBox="0 0 25 24" fill="none" xmlns="http://www.w3.org/2000/svg">
<g id="Icon">
<path id="Vector" d="M11.3335 9H15.3335C15.5987 9 15.8531 8.89464 16.0406 8.70711C16.2281 8.51957 16.3335 8.26522 16.3335 8C16.3335 7.73478 16.2281 7.48043 16.0406 7.29289C15.8531 7.10536 15.5987 7 15.3335 7H13.3335V6C13.3335 5.73478 13.2281 5.48043 13.0406 5.29289C12.8531 5.10536 12.5987 5 12.3335 5C12.0683 5 11.8139 5.10536 11.6264 5.29289C11.4389 5.48043 11.3335 5.73478 11.3335 6V7C10.5379 7 9.77479 7.31607 9.21218 7.87868C8.64957 8.44129 8.3335 9.20435 8.3335 10C8.3335 10.7956 8.64957 11.5587 9.21218 12.1213C9.77479 12.6839 10.5379 13 11.3335 13H13.3335C13.5987 13 13.8531 13.1054 14.0406 13.2929C14.2281 13.4804 14.3335 13.7348 14.3335 14C14.3335 14.2652 14.2281 14.5196 14.0406 14.7071C13.8531 14.8946 13.5987 15 13.3335 15H9.3335C9.06828 15 8.81393 15.1054 8.62639 15.2929C8.43886 15.4804 8.3335 15.7348 8.3335 16C8.3335 16.2652 8.43886 16.5196 8.62639 16.7071C8.81393 16.8946 9.06828 17 9.3335 17H11.3335V18C11.3335 18.2652 11.4389 18.5196 11.6264 18.7071C11.8139 18.8946 12.0683 19 12.3335 19C12.5987 19 12.8531 18.8946 13.0406 18.7071C13.2281 18.5196 13.3335 18.2652 13.3335 18V17C14.1292 17 14.8922 16.6839 15.4548 16.1213C16.0174 15.5587 16.3335 14.7956 16.3335 14C16.3335 13.2044 16.0174 12.4413 15.4548 11.8787C14.8922 11.3161 14.1292 11 13.3335 11H11.3335C11.0683 11 10.8139 10.8946 10.6264 10.7071C10.4389 10.5196 10.3335 10.2652 10.3335 10C10.3335 9.73478 10.4389 9.48043 10.6264 9.29289C10.8139 9.10536 11.0683 9 11.3335 9V9ZM12.3335 1C10.1579 1 8.03117 1.64514 6.22223 2.85383C4.41329 4.06253 3.00339 5.78049 2.17083 7.79048C1.33826 9.80047 1.12043 12.0122 1.54486 14.146C1.9693 16.2798 3.01695 18.2398 4.55533 19.7782C6.0937 21.3166 8.05372 22.3642 10.1875 22.7886C12.3213 23.2131 14.533 22.9952 16.543 22.1627C18.553 21.3301 20.271 19.9202 21.4797 18.1113C22.6884 16.3023 23.3335 14.1756 23.3335 12C23.3335 9.08262 22.1746 6.28473 20.1117 4.22183C18.0488 2.15893 15.2509 1 12.3335 1V1ZM12.3335 21C10.5535 21 8.81341 20.4722 7.33337 19.4832C5.85333 18.4943 4.69977 17.0887 4.01859 15.4442C3.3374 13.7996 3.15917 11.99 3.50643 10.2442C3.8537 8.49836 4.71087 6.89471 5.96954 5.63604C7.22821 4.37737 8.83186 3.5202 10.5777 3.17293C12.3235 2.82567 14.1331 3.0039 15.7777 3.68508C17.4222 4.36627 18.8278 5.51983 19.8167 6.99987C20.8057 8.47991 21.3335 10.22 21.3335 12C21.3335 14.3869 20.3853 16.6761 18.6975 18.364C17.0096 20.0518 14.7204 21 12.3335 21V21Z" fill="#FBFBFB"/>
</g>
</svg>
