<svg width="60" height="60" viewBox="0 0 60 60" fill="none" xmlns="http://www.w3.org/2000/svg">
<g id="Menu / 24 / Outline">
<path id="Vector" d="M27.4999 26.2584C28.24 25.7639 29.11 25.5 30 25.5C31.1935 25.5 32.3381 25.9741 33.182 26.818C34.0259 27.6619 34.5 28.8065 34.5 30C34.5 30.89 34.2361 31.76 33.7416 32.5001C33.2471 33.2401 32.5443 33.8169 31.7221 34.1575C30.8998 34.4981 29.995 34.5872 29.1221 34.4135C28.2492 34.2399 27.4474 33.8113 26.818 33.182C26.1887 32.5526 25.7601 31.7508 25.5865 30.8779C25.4128 30.005 25.5019 29.1002 25.8425 28.2779C26.1831 27.4557 26.7599 26.7529 27.4999 26.2584ZM9.99994 26.2584C10.74 25.7639 11.61 25.5 12.5 25.5C13.6935 25.5 14.8381 25.9741 15.682 26.818C16.5259 27.6619 17 28.8065 17 30C17 30.89 16.7361 31.76 16.2416 32.5001C15.7471 33.2401 15.0443 33.8169 14.2221 34.1575C13.3998 34.4981 12.495 34.5872 11.6221 34.4135C10.7492 34.2399 9.94736 33.8113 9.31802 33.182C8.68869 32.5526 8.2601 31.7508 8.08647 30.8779C7.91284 30.005 8.00195 29.1002 8.34254 28.2779C8.68314 27.4557 9.25991 26.7529 9.99994 26.2584ZM44.9999 26.2584C45.74 25.7639 46.61 25.5 47.5 25.5C48.6935 25.5 49.8381 25.9741 50.682 26.818C51.5259 27.6619 52 28.8065 52 30C52 30.89 51.7361 31.76 51.2416 32.5001C50.7471 33.2401 50.0443 33.8169 49.2221 34.1575C48.3998 34.4981 47.495 34.5872 46.6221 34.4135C45.7492 34.2399 44.9474 33.8113 44.318 33.182C43.6887 32.5526 43.2601 31.7508 43.0865 30.8779C42.9128 30.005 43.0019 29.1002 43.3425 28.2779C43.6831 27.4557 44.2599 26.7529 44.9999 26.2584Z" fill="#FBFBFB" stroke="#FBFBFB"/>
</g>
</svg>
