<svg width="25" height="24" viewBox="0 0 25 24" fill="none" xmlns="http://www.w3.org/2000/svg">
<g id="Icon">
<path id="Vector" d="M20.6666 8.00001L14.6666 2.74001C14.1166 2.24805 13.4045 1.97607 12.6666 1.97607C11.9287 1.97607 11.2166 2.24805 10.6666 2.74001L4.6666 8.00001C4.34897 8.28408 4.0955 8.63256 3.92307 9.02225C3.75064 9.41194 3.66321 9.83389 3.6666 10.26V19C3.6666 19.7957 3.98267 20.5587 4.54528 21.1213C5.10789 21.6839 5.87095 22 6.6666 22H18.6666C19.4622 22 20.2253 21.6839 20.7879 21.1213C21.3505 20.5587 21.6666 19.7957 21.6666 19V10.25C21.6686 9.82557 21.5804 9.40555 21.4081 9.01769C21.2357 8.62983 20.983 8.28296 20.6666 8.00001V8.00001ZM14.6666 20H10.6666V15C10.6666 14.7348 10.772 14.4804 10.9595 14.2929C11.147 14.1054 11.4014 14 11.6666 14H13.6666C13.9318 14 14.1862 14.1054 14.3737 14.2929C14.5612 14.4804 14.6666 14.7348 14.6666 15V20ZM19.6666 19C19.6666 19.2652 19.5612 19.5196 19.3737 19.7071C19.1862 19.8946 18.9318 20 18.6666 20H16.6666V15C16.6666 14.2044 16.3505 13.4413 15.7879 12.8787C15.2253 12.3161 14.4622 12 13.6666 12H11.6666C10.8709 12 10.1079 12.3161 9.54528 12.8787C8.98267 13.4413 8.6666 14.2044 8.6666 15V20H6.6666C6.40138 20 6.14703 19.8946 5.95949 19.7071C5.77196 19.5196 5.6666 19.2652 5.6666 19V10.25C5.66678 10.108 5.69719 9.9677 5.75582 9.83839C5.81444 9.70907 5.89993 9.59372 6.0066 9.50001L12.0066 4.25001C12.1891 4.08969 12.4237 4.00127 12.6666 4.00127C12.9095 4.00127 13.1441 4.08969 13.3266 4.25001L19.3266 9.50001C19.4333 9.59372 19.5188 9.70907 19.5774 9.83839C19.636 9.9677 19.6664 10.108 19.6666 10.25V19Z" fill="#FBFBFB"/>
</g>
</svg>
