<svg width="18" height="18" viewBox="0 0 18 18" fill="none" xmlns="http://www.w3.org/2000/svg">
<path d="M7.49941 4.5006C7.30049 4.5006 7.10973 4.57961 6.96908 4.72027C6.82842 4.86092 6.74941 5.05168 6.74941 5.2506L6.74941 13.9431L5.03191 12.2181C4.89068 12.0769 4.69913 11.9975 4.49941 11.9975C4.29968 11.9975 4.10813 12.0769 3.96691 12.2181C3.82568 12.3593 3.74634 12.5509 3.74634 12.7506C3.74634 12.9503 3.82568 13.1419 3.96691 13.2831L6.96691 16.2831C7.07237 16.3872 7.2063 16.4577 7.3518 16.4857C7.49729 16.5137 7.64782 16.498 7.78441 16.4406C7.92137 16.3843 8.03862 16.2888 8.12137 16.166C8.20412 16.0432 8.24867 15.8987 8.24941 15.7506L8.24941 5.2506C8.24941 5.05168 8.17039 4.86092 8.02974 4.72027C7.88908 4.57961 7.69832 4.5006 7.49941 4.5006ZM10.2144 1.5606C10.0774 1.61686 9.9602 1.71241 9.87745 1.8352C9.7947 1.95799 9.75014 2.10253 9.74941 2.2506L9.74941 12.7506C9.74941 12.9495 9.82842 13.1403 9.96908 13.2809C10.1097 13.4216 10.3005 13.5006 10.4994 13.5006C10.6983 13.5006 10.8891 13.4216 11.0297 13.2809C11.1704 13.1403 11.2494 12.9495 11.2494 12.7506L11.2494 4.0581L12.9669 5.7831C13.0366 5.85339 13.1196 5.90919 13.211 5.94727C13.3024 5.98534 13.4004 6.00494 13.4994 6.00494C13.5984 6.00494 13.6964 5.98534 13.7878 5.94727C13.8792 5.90919 13.9622 5.85339 14.0319 5.7831C14.1022 5.71337 14.158 5.63042 14.1961 5.53903C14.2342 5.44763 14.2538 5.34961 14.2538 5.2506C14.2538 5.15159 14.2342 5.05356 14.1961 4.96216C14.158 4.87077 14.1022 4.78782 14.0319 4.7181L11.0319 1.7181C10.9264 1.61403 10.7925 1.54353 10.647 1.5155C10.5015 1.48747 10.351 1.50316 10.2144 1.5606V1.5606Z" fill="#FBFBFB"/>
</svg>
