<svg width="32" height="32" viewBox="0 0 32 32" fill="none" xmlns="http://www.w3.org/2000/svg">
<g id="office bag / 24 / Outline">
<path id="Vector" d="M25.3332 8.66667H21.3332V7.33334C21.3332 6.27247 20.9117 5.25505 20.1616 4.50491C19.4115 3.75476 18.394 3.33334 17.3332 3.33334H14.6665C13.6056 3.33334 12.5882 3.75476 11.8381 4.50491C11.0879 5.25505 10.6665 6.27247 10.6665 7.33334V8.66667H6.6665C5.60564 8.66667 4.58822 9.0881 3.83808 9.83824C3.08793 10.5884 2.6665 11.6058 2.6665 12.6667V24.6667C2.6665 25.7275 3.08793 26.7449 3.83808 27.4951C4.58822 28.2452 5.60564 28.6667 6.6665 28.6667H25.3332C26.394 28.6667 27.4115 28.2452 28.1616 27.4951C28.9117 26.7449 29.3332 25.7275 29.3332 24.6667V12.6667C29.3332 11.6058 28.9117 10.5884 28.1616 9.83824C27.4115 9.0881 26.394 8.66667 25.3332 8.66667ZM13.3332 7.33334C13.3332 6.97971 13.4736 6.64058 13.7237 6.39053C13.9737 6.14048 14.3129 6 14.6665 6H17.3332C17.6868 6 18.0259 6.14048 18.276 6.39053C18.526 6.64058 18.6665 6.97971 18.6665 7.33334V8.66667H13.3332V7.33334ZM26.6665 24.6667C26.6665 25.0203 26.526 25.3594 26.276 25.6095C26.0259 25.8595 25.6868 26 25.3332 26H6.6665C6.31288 26 5.97374 25.8595 5.7237 25.6095C5.47365 25.3594 5.33317 25.0203 5.33317 24.6667V17.3333C8.72818 18.6802 12.3474 19.3724 15.9998 19.3733C19.6521 19.3711 23.2711 18.679 26.6665 17.3333V24.6667ZM26.6665 14.4133C23.3044 15.8904 19.6721 16.653 15.9998 16.653C12.3276 16.653 8.69531 15.8904 5.33317 14.4133V12.6667C5.33317 12.313 5.47365 11.9739 5.7237 11.7239C5.97374 11.4738 6.31288 11.3333 6.6665 11.3333H25.3332C25.6868 11.3333 26.0259 11.4738 26.276 11.7239C26.526 11.9739 26.6665 12.313 26.6665 12.6667V14.4133Z" fill="#FBFBFB"/>
</g>
</svg>
