<svg width="34" height="34" viewBox="0 0 34 34" fill="none" xmlns="http://www.w3.org/2000/svg">
<g id="135d49dccc62a5a860a2f2d3df0e6538 1" clip-path="url(#clip0_382_6985)">
<g id="Group">
<g id="Group_2">
<g id="Vector">
<mask id="path-1-outside-1_382_6985" maskUnits="userSpaceOnUse" x="-0.333252" y="0.939331" width="34" height="32" fill="black">
<rect fill="white" x="-0.333252" y="0.939331" width="34" height="32"/>
<path d="M15.039 2.175C12.7144 2.66666 10.8497 4.557 10.3644 6.90666C10.2624 7.392 10.243 7.67933 10.2687 8.34333C10.3007 9.26933 10.4027 9.72266 10.7604 10.553L10.9967 11.1023L10.3197 11.3707C9.94935 11.5177 9.29802 11.8177 8.87635 12.0413L8.11035 12.4433L7.47169 12.1303C6.76935 11.792 5.99002 11.5683 5.51769 11.5683C5.26235 11.5683 5.16635 11.6003 5.00035 11.7537C4.79602 11.9323 4.78969 11.958 4.80235 12.3793C4.81502 12.9667 5.02602 13.567 5.49202 14.346L5.60702 14.544L5.16002 15.1317C4.50235 15.9937 3.99135 17.0157 3.70402 18.031L3.60202 18.4013H2.98235C2.24802 18.4013 1.99902 18.4653 1.59035 18.7397C1.18802 19.008 0.888021 19.4357 0.760354 19.9273C0.607021 20.5277 0.651688 22.6797 0.824354 22.999C1.02235 23.3567 1.61602 23.9377 2.29935 24.4357C2.93802 24.9017 6.88435 27.386 7.28669 27.584L7.50369 27.6863V29.5573C7.50369 31.5497 7.52935 31.7157 7.81669 31.8753C7.89335 31.9137 8.56369 31.9393 9.52802 31.9393C10.8434 31.9393 11.1374 31.9203 11.2524 31.8437C11.329 31.7863 11.6547 31.2433 11.974 30.624C12.4337 29.749 12.5807 29.513 12.6637 29.5383C12.7277 29.5573 13.034 29.615 13.347 29.666C15.9587 30.1067 18.9027 29.915 21.291 29.155C21.6614 29.04 21.968 28.9507 21.9807 28.957C21.987 28.9697 22.121 29.5763 22.2744 30.3107C22.5297 31.505 22.5744 31.658 22.7277 31.7923C22.9 31.9393 22.9194 31.9393 24.4967 31.9393C25.4737 31.9393 26.1444 31.9137 26.2207 31.8753C26.5207 31.7093 26.5337 31.6137 26.5337 28.772V26.109L26.9424 25.6747C28.015 24.5443 28.775 23.095 29.0944 21.5877C29.3564 20.3617 29.2477 18.644 28.839 17.571L28.724 17.2643L29.1327 16.8557C29.3564 16.6387 29.669 16.2617 29.8224 16.032L30.1034 15.6107L30.48 15.5787C31.176 15.5147 32.166 14.9913 32.9004 14.295C33.3154 13.9053 33.4114 13.65 33.277 13.3243C33.162 13.0627 32.811 12.871 32.549 12.9413C32.4597 12.9603 32.2297 13.1267 32.0317 13.299C31.572 13.7077 31.0804 14.0397 30.7417 14.1547L30.4797 14.2503L30.518 14.0397C30.5434 13.931 30.5754 13.5287 30.601 13.152C30.665 12.06 30.4797 11.383 29.9754 10.834C29.5347 10.355 29.2984 10.2593 28.545 10.2593C27.9574 10.2593 27.881 10.272 27.5617 10.451C26.8847 10.8277 26.5657 11.4663 26.5657 12.4627C26.5657 13.0183 26.5847 13.1013 26.7574 13.414C27.134 14.091 27.664 14.6337 28.5964 15.285C28.705 15.3617 28.6857 15.3937 28.4177 15.6873C28.143 15.9873 28.124 16.0003 28.0474 15.8853C28.009 15.815 27.7664 15.483 27.511 15.1447C26.3744 13.612 24.4844 12.22 22.4534 11.409C22.0447 11.243 21.7064 11.1023 21.7 11.096C21.6937 11.0897 21.7957 10.8277 21.93 10.5083C22.3197 9.595 22.4154 9.11633 22.409 8.088C22.409 7.37266 22.377 7.08533 22.262 6.65133C21.6364 4.30133 19.7397 2.539 17.377 2.12367C16.8014 2.02167 15.6584 2.04733 15.039 2.175ZM17.5677 3.52233C18.3914 3.733 19.0107 4.10333 19.7004 4.79933C20.1984 5.291 20.3644 5.508 20.5817 5.94866C21.2204 7.23233 21.284 8.71366 20.754 9.97166C19.662 12.558 16.68 13.65 14.1447 12.3857C13.3977 12.0153 12.5037 11.134 12.1204 10.387C11.469 9.11633 11.3734 7.80067 11.8457 6.51067C12.0627 5.91033 12.612 5.061 13.0207 4.68433C13.7104 4.04566 14.7577 3.535 15.626 3.40066C16.1564 3.318 16.9737 3.369 17.5677 3.52233ZM28.9664 11.6707C29.2217 11.9007 29.2984 12.2837 29.2664 13.133C29.247 13.5737 29.209 13.963 29.1707 14.0013C29.0814 14.0907 28.5514 13.65 28.1874 13.1713C27.868 12.75 27.868 12.75 27.8874 12.322C27.9064 11.9773 27.9384 11.8623 28.0597 11.7347C28.2894 11.4853 28.73 11.46 28.9664 11.6707ZM12.229 12.6157C12.4654 12.8393 12.7527 13.0753 12.8614 13.1393C12.97 13.2033 13.0594 13.2733 13.0594 13.2927C13.0594 13.3117 12.7657 13.4077 12.4017 13.5033C11.5077 13.746 10.6967 14.0843 10.5244 14.2823C10.3074 14.5313 10.3264 14.908 10.5627 15.1507C10.818 15.3997 11.029 15.3933 11.808 15.0867C13.2194 14.5373 14.5924 14.295 16.3484 14.295C18.0917 14.295 19.5797 14.5633 20.9334 15.106C21.24 15.2337 21.5974 15.336 21.7187 15.336C22.2167 15.336 22.504 14.6973 22.1914 14.295C22.038 14.1033 21.0547 13.701 20.199 13.4777C19.886 13.3947 19.637 13.318 19.637 13.2923C19.637 13.2733 19.7967 13.152 19.982 13.0177C20.167 12.8837 20.4484 12.6473 20.595 12.494L20.8634 12.2193L21.1317 12.3023C23.7427 13.1137 26.1567 15.0233 27.2167 17.1177C28.2257 19.11 28.1427 21.4983 27.006 23.4013C26.693 23.9187 26.048 24.7423 25.6714 25.1063C25.167 25.5917 25.1924 25.4447 25.1924 28.2033V30.6683L24.4454 30.6493L23.6917 30.6303L23.3917 29.168C23.1554 28.0057 23.066 27.68 22.951 27.5587C22.721 27.316 22.472 27.3097 21.9357 27.5203C19.937 28.3123 18.232 28.593 15.8054 28.5357C14.573 28.5037 14.145 28.4717 13.4107 28.3313C11.9867 28.0697 12.025 28.0697 11.8144 28.2547C11.6994 28.3503 11.393 28.8613 11.048 29.5383L10.4734 30.6623H9.66235H8.85135L8.83202 28.8487C8.81302 26.767 8.84469 26.901 8.17435 26.5627C7.68235 26.3133 3.90202 23.957 3.11669 23.4077C2.78469 23.1777 2.40135 22.884 2.26735 22.75L2.01202 22.5073V21.377C2.01202 19.7743 2.08235 19.6783 3.28902 19.6783C4.33635 19.6783 4.66835 19.4163 4.98769 18.35C5.31335 17.2453 5.90069 16.217 6.70535 15.3487C7.25469 14.7547 7.26735 14.5313 6.81402 13.9183C6.52669 13.5353 6.32869 13.1713 6.37969 13.12C6.41802 13.0753 7.17802 13.4267 7.59302 13.6883C8.05269 13.9693 8.22502 13.95 8.86369 13.5607C9.49602 13.171 10.5177 12.673 11.2394 12.405C11.5204 12.3027 11.763 12.2133 11.7757 12.2133C11.7887 12.207 11.993 12.3923 12.229 12.6157Z"/>
</mask>
<path d="M15.039 2.175C12.7144 2.66666 10.8497 4.557 10.3644 6.90666C10.2624 7.392 10.243 7.67933 10.2687 8.34333C10.3007 9.26933 10.4027 9.72266 10.7604 10.553L10.9967 11.1023L10.3197 11.3707C9.94935 11.5177 9.29802 11.8177 8.87635 12.0413L8.11035 12.4433L7.47169 12.1303C6.76935 11.792 5.99002 11.5683 5.51769 11.5683C5.26235 11.5683 5.16635 11.6003 5.00035 11.7537C4.79602 11.9323 4.78969 11.958 4.80235 12.3793C4.81502 12.9667 5.02602 13.567 5.49202 14.346L5.60702 14.544L5.16002 15.1317C4.50235 15.9937 3.99135 17.0157 3.70402 18.031L3.60202 18.4013H2.98235C2.24802 18.4013 1.99902 18.4653 1.59035 18.7397C1.18802 19.008 0.888021 19.4357 0.760354 19.9273C0.607021 20.5277 0.651688 22.6797 0.824354 22.999C1.02235 23.3567 1.61602 23.9377 2.29935 24.4357C2.93802 24.9017 6.88435 27.386 7.28669 27.584L7.50369 27.6863V29.5573C7.50369 31.5497 7.52935 31.7157 7.81669 31.8753C7.89335 31.9137 8.56369 31.9393 9.52802 31.9393C10.8434 31.9393 11.1374 31.9203 11.2524 31.8437C11.329 31.7863 11.6547 31.2433 11.974 30.624C12.4337 29.749 12.5807 29.513 12.6637 29.5383C12.7277 29.5573 13.034 29.615 13.347 29.666C15.9587 30.1067 18.9027 29.915 21.291 29.155C21.6614 29.04 21.968 28.9507 21.9807 28.957C21.987 28.9697 22.121 29.5763 22.2744 30.3107C22.5297 31.505 22.5744 31.658 22.7277 31.7923C22.9 31.9393 22.9194 31.9393 24.4967 31.9393C25.4737 31.9393 26.1444 31.9137 26.2207 31.8753C26.5207 31.7093 26.5337 31.6137 26.5337 28.772V26.109L26.9424 25.6747C28.015 24.5443 28.775 23.095 29.0944 21.5877C29.3564 20.3617 29.2477 18.644 28.839 17.571L28.724 17.2643L29.1327 16.8557C29.3564 16.6387 29.669 16.2617 29.8224 16.032L30.1034 15.6107L30.48 15.5787C31.176 15.5147 32.166 14.9913 32.9004 14.295C33.3154 13.9053 33.4114 13.65 33.277 13.3243C33.162 13.0627 32.811 12.871 32.549 12.9413C32.4597 12.9603 32.2297 13.1267 32.0317 13.299C31.572 13.7077 31.0804 14.0397 30.7417 14.1547L30.4797 14.2503L30.518 14.0397C30.5434 13.931 30.5754 13.5287 30.601 13.152C30.665 12.06 30.4797 11.383 29.9754 10.834C29.5347 10.355 29.2984 10.2593 28.545 10.2593C27.9574 10.2593 27.881 10.272 27.5617 10.451C26.8847 10.8277 26.5657 11.4663 26.5657 12.4627C26.5657 13.0183 26.5847 13.1013 26.7574 13.414C27.134 14.091 27.664 14.6337 28.5964 15.285C28.705 15.3617 28.6857 15.3937 28.4177 15.6873C28.143 15.9873 28.124 16.0003 28.0474 15.8853C28.009 15.815 27.7664 15.483 27.511 15.1447C26.3744 13.612 24.4844 12.22 22.4534 11.409C22.0447 11.243 21.7064 11.1023 21.7 11.096C21.6937 11.0897 21.7957 10.8277 21.93 10.5083C22.3197 9.595 22.4154 9.11633 22.409 8.088C22.409 7.37266 22.377 7.08533 22.262 6.65133C21.6364 4.30133 19.7397 2.539 17.377 2.12367C16.8014 2.02167 15.6584 2.04733 15.039 2.175ZM17.5677 3.52233C18.3914 3.733 19.0107 4.10333 19.7004 4.79933C20.1984 5.291 20.3644 5.508 20.5817 5.94866C21.2204 7.23233 21.284 8.71366 20.754 9.97166C19.662 12.558 16.68 13.65 14.1447 12.3857C13.3977 12.0153 12.5037 11.134 12.1204 10.387C11.469 9.11633 11.3734 7.80067 11.8457 6.51067C12.0627 5.91033 12.612 5.061 13.0207 4.68433C13.7104 4.04566 14.7577 3.535 15.626 3.40066C16.1564 3.318 16.9737 3.369 17.5677 3.52233ZM28.9664 11.6707C29.2217 11.9007 29.2984 12.2837 29.2664 13.133C29.247 13.5737 29.209 13.963 29.1707 14.0013C29.0814 14.0907 28.5514 13.65 28.1874 13.1713C27.868 12.75 27.868 12.75 27.8874 12.322C27.9064 11.9773 27.9384 11.8623 28.0597 11.7347C28.2894 11.4853 28.73 11.46 28.9664 11.6707ZM12.229 12.6157C12.4654 12.8393 12.7527 13.0753 12.8614 13.1393C12.97 13.2033 13.0594 13.2733 13.0594 13.2927C13.0594 13.3117 12.7657 13.4077 12.4017 13.5033C11.5077 13.746 10.6967 14.0843 10.5244 14.2823C10.3074 14.5313 10.3264 14.908 10.5627 15.1507C10.818 15.3997 11.029 15.3933 11.808 15.0867C13.2194 14.5373 14.5924 14.295 16.3484 14.295C18.0917 14.295 19.5797 14.5633 20.9334 15.106C21.24 15.2337 21.5974 15.336 21.7187 15.336C22.2167 15.336 22.504 14.6973 22.1914 14.295C22.038 14.1033 21.0547 13.701 20.199 13.4777C19.886 13.3947 19.637 13.318 19.637 13.2923C19.637 13.2733 19.7967 13.152 19.982 13.0177C20.167 12.8837 20.4484 12.6473 20.595 12.494L20.8634 12.2193L21.1317 12.3023C23.7427 13.1137 26.1567 15.0233 27.2167 17.1177C28.2257 19.11 28.1427 21.4983 27.006 23.4013C26.693 23.9187 26.048 24.7423 25.6714 25.1063C25.167 25.5917 25.1924 25.4447 25.1924 28.2033V30.6683L24.4454 30.6493L23.6917 30.6303L23.3917 29.168C23.1554 28.0057 23.066 27.68 22.951 27.5587C22.721 27.316 22.472 27.3097 21.9357 27.5203C19.937 28.3123 18.232 28.593 15.8054 28.5357C14.573 28.5037 14.145 28.4717 13.4107 28.3313C11.9867 28.0697 12.025 28.0697 11.8144 28.2547C11.6994 28.3503 11.393 28.8613 11.048 29.5383L10.4734 30.6623H9.66235H8.85135L8.83202 28.8487C8.81302 26.767 8.84469 26.901 8.17435 26.5627C7.68235 26.3133 3.90202 23.957 3.11669 23.4077C2.78469 23.1777 2.40135 22.884 2.26735 22.75L2.01202 22.5073V21.377C2.01202 19.7743 2.08235 19.6783 3.28902 19.6783C4.33635 19.6783 4.66835 19.4163 4.98769 18.35C5.31335 17.2453 5.90069 16.217 6.70535 15.3487C7.25469 14.7547 7.26735 14.5313 6.81402 13.9183C6.52669 13.5353 6.32869 13.1713 6.37969 13.12C6.41802 13.0753 7.17802 13.4267 7.59302 13.6883C8.05269 13.9693 8.22502 13.95 8.86369 13.5607C9.49602 13.171 10.5177 12.673 11.2394 12.405C11.5204 12.3027 11.763 12.2133 11.7757 12.2133C11.7887 12.207 11.993 12.3923 12.229 12.6157Z" fill="#FBFBFB"/>
<path d="M15.039 2.175C12.7144 2.66666 10.8497 4.557 10.3644 6.90666C10.2624 7.392 10.243 7.67933 10.2687 8.34333C10.3007 9.26933 10.4027 9.72266 10.7604 10.553L10.9967 11.1023L10.3197 11.3707C9.94935 11.5177 9.29802 11.8177 8.87635 12.0413L8.11035 12.4433L7.47169 12.1303C6.76935 11.792 5.99002 11.5683 5.51769 11.5683C5.26235 11.5683 5.16635 11.6003 5.00035 11.7537C4.79602 11.9323 4.78969 11.958 4.80235 12.3793C4.81502 12.9667 5.02602 13.567 5.49202 14.346L5.60702 14.544L5.16002 15.1317C4.50235 15.9937 3.99135 17.0157 3.70402 18.031L3.60202 18.4013H2.98235C2.24802 18.4013 1.99902 18.4653 1.59035 18.7397C1.18802 19.008 0.888021 19.4357 0.760354 19.9273C0.607021 20.5277 0.651688 22.6797 0.824354 22.999C1.02235 23.3567 1.61602 23.9377 2.29935 24.4357C2.93802 24.9017 6.88435 27.386 7.28669 27.584L7.50369 27.6863V29.5573C7.50369 31.5497 7.52935 31.7157 7.81669 31.8753C7.89335 31.9137 8.56369 31.9393 9.52802 31.9393C10.8434 31.9393 11.1374 31.9203 11.2524 31.8437C11.329 31.7863 11.6547 31.2433 11.974 30.624C12.4337 29.749 12.5807 29.513 12.6637 29.5383C12.7277 29.5573 13.034 29.615 13.347 29.666C15.9587 30.1067 18.9027 29.915 21.291 29.155C21.6614 29.04 21.968 28.9507 21.9807 28.957C21.987 28.9697 22.121 29.5763 22.2744 30.3107C22.5297 31.505 22.5744 31.658 22.7277 31.7923C22.9 31.9393 22.9194 31.9393 24.4967 31.9393C25.4737 31.9393 26.1444 31.9137 26.2207 31.8753C26.5207 31.7093 26.5337 31.6137 26.5337 28.772V26.109L26.9424 25.6747C28.015 24.5443 28.775 23.095 29.0944 21.5877C29.3564 20.3617 29.2477 18.644 28.839 17.571L28.724 17.2643L29.1327 16.8557C29.3564 16.6387 29.669 16.2617 29.8224 16.032L30.1034 15.6107L30.48 15.5787C31.176 15.5147 32.166 14.9913 32.9004 14.295C33.3154 13.9053 33.4114 13.65 33.277 13.3243C33.162 13.0627 32.811 12.871 32.549 12.9413C32.4597 12.9603 32.2297 13.1267 32.0317 13.299C31.572 13.7077 31.0804 14.0397 30.7417 14.1547L30.4797 14.2503L30.518 14.0397C30.5434 13.931 30.5754 13.5287 30.601 13.152C30.665 12.06 30.4797 11.383 29.9754 10.834C29.5347 10.355 29.2984 10.2593 28.545 10.2593C27.9574 10.2593 27.881 10.272 27.5617 10.451C26.8847 10.8277 26.5657 11.4663 26.5657 12.4627C26.5657 13.0183 26.5847 13.1013 26.7574 13.414C27.134 14.091 27.664 14.6337 28.5964 15.285C28.705 15.3617 28.6857 15.3937 28.4177 15.6873C28.143 15.9873 28.124 16.0003 28.0474 15.8853C28.009 15.815 27.7664 15.483 27.511 15.1447C26.3744 13.612 24.4844 12.22 22.4534 11.409C22.0447 11.243 21.7064 11.1023 21.7 11.096C21.6937 11.0897 21.7957 10.8277 21.93 10.5083C22.3197 9.595 22.4154 9.11633 22.409 8.088C22.409 7.37266 22.377 7.08533 22.262 6.65133C21.6364 4.30133 19.7397 2.539 17.377 2.12367C16.8014 2.02167 15.6584 2.04733 15.039 2.175ZM17.5677 3.52233C18.3914 3.733 19.0107 4.10333 19.7004 4.79933C20.1984 5.291 20.3644 5.508 20.5817 5.94866C21.2204 7.23233 21.284 8.71366 20.754 9.97166C19.662 12.558 16.68 13.65 14.1447 12.3857C13.3977 12.0153 12.5037 11.134 12.1204 10.387C11.469 9.11633 11.3734 7.80067 11.8457 6.51067C12.0627 5.91033 12.612 5.061 13.0207 4.68433C13.7104 4.04566 14.7577 3.535 15.626 3.40066C16.1564 3.318 16.9737 3.369 17.5677 3.52233ZM28.9664 11.6707C29.2217 11.9007 29.2984 12.2837 29.2664 13.133C29.247 13.5737 29.209 13.963 29.1707 14.0013C29.0814 14.0907 28.5514 13.65 28.1874 13.1713C27.868 12.75 27.868 12.75 27.8874 12.322C27.9064 11.9773 27.9384 11.8623 28.0597 11.7347C28.2894 11.4853 28.73 11.46 28.9664 11.6707ZM12.229 12.6157C12.4654 12.8393 12.7527 13.0753 12.8614 13.1393C12.97 13.2033 13.0594 13.2733 13.0594 13.2927C13.0594 13.3117 12.7657 13.4077 12.4017 13.5033C11.5077 13.746 10.6967 14.0843 10.5244 14.2823C10.3074 14.5313 10.3264 14.908 10.5627 15.1507C10.818 15.3997 11.029 15.3933 11.808 15.0867C13.2194 14.5373 14.5924 14.295 16.3484 14.295C18.0917 14.295 19.5797 14.5633 20.9334 15.106C21.24 15.2337 21.5974 15.336 21.7187 15.336C22.2167 15.336 22.504 14.6973 22.1914 14.295C22.038 14.1033 21.0547 13.701 20.199 13.4777C19.886 13.3947 19.637 13.318 19.637 13.2923C19.637 13.2733 19.7967 13.152 19.982 13.0177C20.167 12.8837 20.4484 12.6473 20.595 12.494L20.8634 12.2193L21.1317 12.3023C23.7427 13.1137 26.1567 15.0233 27.2167 17.1177C28.2257 19.11 28.1427 21.4983 27.006 23.4013C26.693 23.9187 26.048 24.7423 25.6714 25.1063C25.167 25.5917 25.1924 25.4447 25.1924 28.2033V30.6683L24.4454 30.6493L23.6917 30.6303L23.3917 29.168C23.1554 28.0057 23.066 27.68 22.951 27.5587C22.721 27.316 22.472 27.3097 21.9357 27.5203C19.937 28.3123 18.232 28.593 15.8054 28.5357C14.573 28.5037 14.145 28.4717 13.4107 28.3313C11.9867 28.0697 12.025 28.0697 11.8144 28.2547C11.6994 28.3503 11.393 28.8613 11.048 29.5383L10.4734 30.6623H9.66235H8.85135L8.83202 28.8487C8.81302 26.767 8.84469 26.901 8.17435 26.5627C7.68235 26.3133 3.90202 23.957 3.11669 23.4077C2.78469 23.1777 2.40135 22.884 2.26735 22.75L2.01202 22.5073V21.377C2.01202 19.7743 2.08235 19.6783 3.28902 19.6783C4.33635 19.6783 4.66835 19.4163 4.98769 18.35C5.31335 17.2453 5.90069 16.217 6.70535 15.3487C7.25469 14.7547 7.26735 14.5313 6.81402 13.9183C6.52669 13.5353 6.32869 13.1713 6.37969 13.12C6.41802 13.0753 7.17802 13.4267 7.59302 13.6883C8.05269 13.9693 8.22502 13.95 8.86369 13.5607C9.49602 13.171 10.5177 12.673 11.2394 12.405C11.5204 12.3027 11.763 12.2133 11.7757 12.2133C11.7887 12.207 11.993 12.3923 12.229 12.6157Z" stroke="#FBFBFB" stroke-width="0.4" mask="url(#path-1-outside-1_382_6985)"/>
</g>
<path id="Vector_2" d="M15.6021 8.73251C15.7207 8.77099 15.8188 8.79969 15.8987 8.81547C15.9762 8.83077 16.0505 8.83704 16.1145 8.81765C16.1574 8.80462 16.191 8.78166 16.2164 8.75181V8.80332V8.87852L16.2887 8.89939L16.576 8.98239L16.5766 8.98258L16.5766 8.98257C16.6958 9.01615 16.7813 9.05341 16.8372 9.08996C16.8948 9.12768 16.9081 9.15593 16.9104 9.1672C16.9116 9.17316 16.9136 9.19181 16.8793 9.2272C16.8442 9.26356 16.7804 9.3062 16.6797 9.34992C16.4826 9.43136 16.2321 9.42564 16.0301 9.35902C15.9296 9.32588 15.8474 9.27964 15.7921 9.22794C15.7371 9.17655 15.7141 9.12544 15.7141 9.07799C15.7141 8.94354 15.6305 8.80927 15.5307 8.70949C15.5304 8.70914 15.5301 8.70879 15.5297 8.70845C15.5535 8.71664 15.5776 8.72466 15.6021 8.73251ZM15.6021 8.73251C15.6021 8.73252 15.6021 8.73253 15.6022 8.73253L15.6327 8.63732L15.6019 8.73244C15.602 8.73247 15.602 8.73249 15.6021 8.73251ZM16.046 4.70136L16.047 4.70096C16.4556 4.52724 16.9413 4.79975 17.0641 5.23907L17.0641 5.23906L17.0649 5.24238C17.0932 5.35888 17.116 5.41139 17.1468 5.44689C17.1777 5.48241 17.2263 5.51196 17.3368 5.55612L17.3368 5.55611L17.3381 5.55665C17.7609 5.73246 18.105 6.07715 18.2952 6.4416C18.4826 6.80072 18.5354 7.21309 18.3107 7.4988L18.3106 7.49888C18.1427 7.71194 17.9111 7.8145 17.6818 7.807C17.9252 7.95181 18.0921 8.12905 18.2289 8.36318C18.4611 8.75297 18.508 9.23628 18.3654 9.67115L18.3654 9.67115L18.3651 9.67209C18.2948 9.87966 18.1372 10.1045 17.9501 10.2958C17.7625 10.4875 17.5357 10.6554 17.3176 10.7419L17.3173 10.7421C17.2513 10.768 17.1942 10.8005 17.1556 10.83C17.1371 10.8441 17.1252 10.8557 17.1187 10.8635C17.1135 10.9803 17.055 11.1192 16.9855 11.2333C16.9132 11.3521 16.8113 11.4733 16.7047 11.5245L16.7047 11.5245L16.7025 11.5255C16.5877 11.5773 16.4469 11.6013 16.3147 11.6021C16.1835 11.603 16.0481 11.5811 15.946 11.5301L15.946 11.5302L15.9429 11.5285C15.847 11.4762 15.7573 11.3597 15.6941 11.2458C15.6299 11.1302 15.5777 10.9896 15.5777 10.8723C15.5777 10.8634 15.5756 10.8522 15.5569 10.8352C15.5355 10.8156 15.4959 10.7924 15.4287 10.7691C15.0102 10.6316 14.6466 10.2794 14.4334 9.90127C14.3262 9.71116 14.254 9.50935 14.2335 9.31822C14.213 9.12737 14.2436 8.94024 14.3512 8.79014C14.4903 8.59199 14.7659 8.47719 15.0276 8.48295C14.8492 8.3787 14.6999 8.25784 14.5806 8.119C14.3483 7.84873 14.2364 7.51818 14.2364 7.13032C14.2364 6.66337 14.3998 6.27297 14.7269 5.95976L14.7275 5.95919C14.8467 5.84694 15.0197 5.72608 15.1786 5.63357C15.2584 5.58709 15.3368 5.54653 15.4053 5.51724C15.4586 5.49444 15.5158 5.47395 15.5658 5.46784C15.5719 5.45083 15.5774 5.42166 15.5774 5.38066C15.5774 5.2497 15.6405 5.10509 15.723 4.98647C15.8061 4.86697 15.9214 4.75584 16.046 4.70136ZM16.5947 7.42267C16.8177 7.47528 17.0115 7.52836 17.1812 7.58561C17.107 7.51135 17.0441 7.41934 16.9974 7.31091C16.9651 7.23777 16.9206 7.16038 16.8751 7.09474C16.8287 7.02783 16.7873 6.9817 16.7621 6.96239C16.7075 6.92494 16.6233 6.89776 16.518 6.88569C16.4134 6.87369 16.296 6.87757 16.1833 6.8955C16.0702 6.91348 15.9661 6.94489 15.8868 6.98499C15.8043 7.02673 15.7642 7.06977 15.7519 7.10219L15.7519 7.1022L15.7508 7.105C15.7506 7.10541 15.7504 7.10575 15.7502 7.10608C15.7491 7.10781 15.7482 7.1092 15.7553 7.11851C15.7689 7.13658 15.8025 7.16449 15.8721 7.19893C16.0095 7.26684 16.2439 7.33975 16.5947 7.42267ZM17.1141 10.8699C17.1142 10.8699 17.1144 10.8695 17.1149 10.8686L17.1141 10.8699Z" fill="#FBFBFB" stroke="#FBFBFB" stroke-width="0.2"/>
<path id="Vector_3" d="M6.66736 19.5307C5.71319 18.8712 5.93049 17.3485 7.03244 16.9971C8.0933 16.655 9.13952 17.5985 8.87822 18.674C8.78211 19.0789 8.48236 19.4608 8.10428 19.6467C7.89282 19.7556 7.63266 19.7955 7.37913 19.7752C7.1252 19.7549 6.86957 19.6736 6.66736 19.5307Z" fill="#FBFBFB" stroke="#FBFBFB" stroke-width="0.2"/>
</g>
</g>
</g>
<defs>
<clipPath id="clip0_382_6985">
<rect width="33.3333" height="33.3333" fill="white" transform="translate(0.333374 0.333313)"/>
</clipPath>
</defs>
</svg>
